<?xml version="1.0" encoding="UTF-8" standalone="no"?>
<svg
   xmlns:dc="http://purl.org/dc/elements/1.1/"
   xmlns:cc="http://creativecommons.org/ns#"
   xmlns:rdf="http://www.w3.org/1999/02/22-rdf-syntax-ns#"
   xmlns:svg="http://www.w3.org/2000/svg"
   xmlns="http://www.w3.org/2000/svg"
   viewBox="0 0 895.49731 207.436"
   xml:space="preserve"
   id="svg2"
   version="1.1"><metadata
     id="metadata8"><rdf:RDF><cc:Work
         rdf:about=""><dc:format>image/svg+xml</dc:format><dc:type
           rdf:resource="http://purl.org/dc/dcmitype/StillImage" /></cc:Work></rdf:RDF></metadata><defs
     id="defs6"><linearGradient
       id="linearGradient28"
       spreadMethod="pad"
       gradientTransform="matrix(678.07593,147.31802,147.31802,-678.07593,-29.573057,103.57837)"
       gradientUnits="userSpaceOnUse"
       y2="0"
       x2="1"
       y1="0"
       x1="0"><stop
         id="stop24"
         offset="0"
         style="stop-opacity:1;stop-color:#1baaa1" /><stop
         id="stop26"
         offset="1"
         style="stop-opacity:1;stop-color:#337abe" /></linearGradient><linearGradient
       id="linearGradient48"
       spreadMethod="pad"
       gradientTransform="matrix(678.07593,147.31802,147.31802,-678.07593,-25.183119,83.372345)"
       gradientUnits="userSpaceOnUse"
       y2="0"
       x2="1"
       y1="0"
       x1="0"><stop
         id="stop44"
         offset="0"
         style="stop-opacity:1;stop-color:#1baaa1" /><stop
         id="stop46"
         offset="1"
         style="stop-opacity:1;stop-color:#337abe" /></linearGradient><linearGradient
       id="linearGradient68"
       spreadMethod="pad"
       gradientTransform="matrix(678.07593,147.31802,147.31802,-678.07593,-21.317041,65.577553)"
       gradientUnits="userSpaceOnUse"
       y2="0"
       x2="1"
       y1="0"
       x1="0"><stop
         id="stop64"
         offset="0"
         style="stop-opacity:1;stop-color:#1baaa1" /><stop
         id="stop66"
         offset="1"
         style="stop-opacity:1;stop-color:#337abe" /></linearGradient><linearGradient
       id="linearGradient88"
       spreadMethod="pad"
       gradientTransform="matrix(678.07593,147.31802,147.31802,-678.07593,-13.881736,31.354298)"
       gradientUnits="userSpaceOnUse"
       y2="0"
       x2="1"
       y1="0"
       x1="0"><stop
         id="stop84"
         offset="0"
         style="stop-opacity:1;stop-color:#1baaa1" /><stop
         id="stop86"
         offset="1"
         style="stop-opacity:1;stop-color:#337abe" /></linearGradient><linearGradient
       id="linearGradient108"
       spreadMethod="pad"
       gradientTransform="matrix(678.07593,147.31802,147.31802,-678.07593,-8.1471949,4.9593325)"
       gradientUnits="userSpaceOnUse"
       y2="0"
       x2="1"
       y1="0"
       x1="0"><stop
         id="stop104"
         offset="0"
         style="stop-opacity:1;stop-color:#1baaa1" /><stop
         id="stop106"
         offset="1"
         style="stop-opacity:1;stop-color:#337abe" /></linearGradient><linearGradient
       id="linearGradient128"
       spreadMethod="pad"
       gradientTransform="matrix(678.07593,147.31802,147.31802,-678.07593,-2.4126544,-21.435633)"
       gradientUnits="userSpaceOnUse"
       y2="0"
       x2="1"
       y1="0"
       x1="0"><stop
         id="stop124"
         offset="0"
         style="stop-opacity:1;stop-color:#1baaa1" /><stop
         id="stop126"
         offset="1"
         style="stop-opacity:1;stop-color:#337abe" /></linearGradient><linearGradient
       id="linearGradient148"
       spreadMethod="pad"
       gradientTransform="matrix(678.07593,147.31802,147.31802,-678.07593,-17.777695,49.286629)"
       gradientUnits="userSpaceOnUse"
       y2="0"
       x2="1"
       y1="0"
       x1="0"><stop
         id="stop144"
         offset="0"
         style="stop-opacity:1;stop-color:#1baaa1" /><stop
         id="stop146"
         offset="1"
         style="stop-opacity:1;stop-color:#337abe" /></linearGradient><linearGradient
       id="linearGradient168"
       spreadMethod="pad"
       gradientTransform="matrix(678.07593,147.31802,147.31802,-678.07593,-12.537265,25.165962)"
       gradientUnits="userSpaceOnUse"
       y2="0"
       x2="1"
       y1="0"
       x1="0"><stop
         id="stop164"
         offset="0"
         style="stop-opacity:1;stop-color:#1baaa1" /><stop
         id="stop166"
         offset="1"
         style="stop-opacity:1;stop-color:#337abe" /></linearGradient><linearGradient
       id="linearGradient188"
       spreadMethod="pad"
       gradientTransform="matrix(678.07593,147.31802,147.31802,-678.07593,-3.758826,-15.23947)"
       gradientUnits="userSpaceOnUse"
       y2="0"
       x2="1"
       y1="0"
       x1="0"><stop
         id="stop184"
         offset="0"
         style="stop-opacity:1;stop-color:#1baaa1" /><stop
         id="stop186"
         offset="1"
         style="stop-opacity:1;stop-color:#337abe" /></linearGradient><linearGradient
       id="linearGradient208"
       spreadMethod="pad"
       gradientTransform="matrix(678.07593,147.31802,147.31802,-678.07593,-7.3558049,1.316718)"
       gradientUnits="userSpaceOnUse"
       y2="0"
       x2="1"
       y1="0"
       x1="0"><stop
         id="stop204"
         offset="0"
         style="stop-opacity:1;stop-color:#1baaa1" /><stop
         id="stop206"
         offset="1"
         style="stop-opacity:1;stop-color:#337abe" /></linearGradient><linearGradient
       id="linearGradient228"
       spreadMethod="pad"
       gradientTransform="matrix(678.07593,147.31802,147.31802,-678.07593,5.8140249,-59.301426)"
       gradientUnits="userSpaceOnUse"
       y2="0"
       x2="1"
       y1="0"
       x1="0"><stop
         id="stop224"
         offset="0"
         style="stop-opacity:1;stop-color:#1baaa1" /><stop
         id="stop226"
         offset="1"
         style="stop-opacity:1;stop-color:#337abe" /></linearGradient><linearGradient
       id="linearGradient248"
       spreadMethod="pad"
       gradientTransform="matrix(678.07593,147.31802,147.31802,-678.07593,-2.4420009,-21.300558)"
       gradientUnits="userSpaceOnUse"
       y2="0"
       x2="1"
       y1="0"
       x1="0"><stop
         id="stop244"
         offset="0"
         style="stop-opacity:1;stop-color:#1baaa1" /><stop
         id="stop246"
         offset="1"
         style="stop-opacity:1;stop-color:#337abe" /></linearGradient><linearGradient
       id="linearGradient268"
       spreadMethod="pad"
       gradientTransform="matrix(678.07593,147.31802,147.31802,-678.07593,-12.269603,23.933968)"
       gradientUnits="userSpaceOnUse"
       y2="0"
       x2="1"
       y1="0"
       x1="0"><stop
         id="stop264"
         offset="0"
         style="stop-opacity:1;stop-color:#1baaa1" /><stop
         id="stop266"
         offset="1"
         style="stop-opacity:1;stop-color:#337abe" /></linearGradient><linearGradient
       id="linearGradient288"
       spreadMethod="pad"
       gradientTransform="matrix(678.07593,147.31802,147.31802,-678.07593,0.5734676,-35.180168)"
       gradientUnits="userSpaceOnUse"
       y2="0"
       x2="1"
       y1="0"
       x1="0"><stop
         id="stop284"
         offset="0"
         style="stop-opacity:1;stop-color:#1baaa1" /><stop
         id="stop286"
         offset="1"
         style="stop-opacity:1;stop-color:#337abe" /></linearGradient><linearGradient
       id="linearGradient308"
       spreadMethod="pad"
       gradientTransform="matrix(678.07593,147.31802,147.31802,-678.07593,10.20241,-79.500298)"
       gradientUnits="userSpaceOnUse"
       y2="0"
       x2="1"
       y1="0"
       x1="0"><stop
         id="stop304"
         offset="0"
         style="stop-opacity:1;stop-color:#1baaa1" /><stop
         id="stop306"
         offset="1"
         style="stop-opacity:1;stop-color:#337abe" /></linearGradient></defs><g
     transform="matrix(1.3333333,0,0,-1.3333333,0,207.436)"
     id="g10"><g
       id="g12"><g
         id="g14"><g
           id="g20"><g
             id="g22"><path
               id="path30"
               style="fill:url(#linearGradient28);stroke:none"
               d="M 26.056,155.576 C 11.69,155.576 0,143.887 0,129.519 v 0 -41.065 h 11.839 v 21.722 H 75.487 V 88.454 h 11.84 v 41.065 c 0,14.368 -11.689,26.057 -26.057,26.057 v 0 z M 11.839,129.519 c 0,7.839 6.378,14.216 14.217,14.216 v 0 H 61.27 c 7.839,0 14.217,-6.377 14.217,-14.216 v 0 -7.503 H 11.839 Z" /></g></g></g></g><g
       id="g32"><g
         id="g34"><g
           id="g40"><g
             id="g42"><path
               id="path50"
               style="fill:url(#linearGradient48);stroke:none"
               d="m 123.451,155.575 c -14.366,0 -26.056,-11.689 -26.056,-26.056 v 0 -41.065 h 11.84 v 41.065 c 0,7.839 6.377,14.216 14.216,14.216 v 0 h 35.214 c 7.839,0 14.216,-6.377 14.216,-14.216 v 0 -41.065 h 11.839 v 41.065 c 0,14.367 -11.689,26.056 -26.055,26.056 v 0 z" /></g></g></g></g><g
       id="g52"><g
         id="g54"><g
           id="g60"><g
             id="g62"><path
               id="path70"
               style="fill:url(#linearGradient68);stroke:none"
               d="m 220.846,155.575 c -14.368,0 -26.057,-11.689 -26.057,-26.056 v 0 -15.007 c 0,-14.369 11.689,-26.058 26.057,-26.058 v 0 h 35.213 c 14.367,0 26.057,11.689 26.057,26.058 v 0 15.007 c 0,14.367 -11.689,26.056 -26.057,26.056 v 0 z m -14.218,-41.063 v 15.007 c 0,7.839 6.378,14.216 14.218,14.216 v 0 h 35.213 c 7.839,0 14.217,-6.377 14.217,-14.216 v 0 -15.007 c 0,-7.84 -6.378,-14.219 -14.217,-14.219 v 0 h -35.213 c -7.84,0 -14.218,6.379 -14.218,14.219" /></g></g></g></g><g
       id="g72"><g
         id="g74"><g
           id="g80"><g
             id="g82"><path
               id="path90"
               style="fill:url(#linearGradient88);stroke:none"
               d="m 486.973,143.735 h 87.326 v 11.839 h -87.326 z" /></g></g></g></g><g
       id="g92"><g
         id="g94"><g
           id="g100"><g
             id="g102"><path
               id="path110"
               style="fill:url(#linearGradient108);stroke:none"
               d="m 486.973,116.095 h 87.326 v 11.84 h -87.326 z" /></g></g></g></g><g
       id="g112"><g
         id="g114"><g
           id="g120"><g
             id="g122"><path
               id="path130"
               style="fill:url(#linearGradient128);stroke:none"
               d="m 486.973,88.454 h 87.326 v 11.84 h -87.326 z" /></g></g></g></g><g
       id="g132"><g
         id="g134"><g
           id="g140"><g
             id="g142"><path
               id="path150"
               style="fill:url(#linearGradient148);stroke:none"
               d="m 292.184,155.576 v -11.841 h 37.742 V 88.454 h 11.841 v 55.281 h 37.742 v 11.841 z" /></g></g></g></g><g
       id="g152"><g
         id="g154"><g
           id="g160"><g
             id="g162"><path
               id="path170"
               style="fill:url(#linearGradient168);stroke:none"
               d="m 465.064,155.577 v -27.642 h -63.647 v 27.642 H 389.578 V 88.454 h 11.839 v 27.642 h 63.647 V 88.454 h 11.84 v 27.642 h 10e-4 v 11.839 h -10e-4 v 27.642 z" /></g></g></g></g><g
       id="g172"><g
         id="g174"><g
           id="g180"><g
             id="g182"><path
               id="path190"
               style="fill:url(#linearGradient188);stroke:none"
               d="m 584.476,155.576 v -0.11 l -0.109,0.11 V 88.454 h 11.84 v 21.722 h 46.727 l 15.542,-21.722 h 13.147 l -16.224,22.675 c 9.371,2.795 16.224,11.481 16.224,21.747 v 0 c 0,12.516 -10.182,22.7 -22.698,22.7 v 0 z m 11.731,-11.841 h 52.718 c 5.987,0 10.859,-4.871 10.859,-10.859 v 0 c 0,-5.989 -4.872,-10.86 -10.859,-10.86 v 0 h -52.718 z" /></g></g></g></g><g
       id="g192"><g
         id="g194"><g
           id="g200"><g
             id="g202"><path
               id="path210"
               style="fill:url(#linearGradient208);stroke:none"
               d="m 123.451,67.121 c -14.368,0 -26.056,-11.689 -26.056,-26.056 v 0 -15.007 C 97.395,11.689 109.083,0 123.451,0 v 0 h 35.214 c 14.366,0 26.055,11.689 26.055,26.058 v 0 15.007 c 0,14.367 -11.689,26.056 -26.055,26.056 v 0 z M 109.235,26.058 v 15.007 c 0,7.839 6.376,14.217 14.216,14.217 v 0 h 35.214 c 7.839,0 14.216,-6.378 14.216,-14.217 v 0 -15.007 c 0,-7.84 -6.378,-14.219 -14.216,-14.219 v 0 h -35.214 c -7.84,0 -14.216,6.379 -14.216,14.219" /></g></g></g></g><g
       id="g212"><g
         id="g214"><g
           id="g220"><g
             id="g222"><path
               id="path230"
               style="fill:url(#linearGradient228);stroke:none"
               d="m 415.634,67.121 c -14.367,0 -26.056,-11.689 -26.056,-26.056 v 0 -15.007 C 389.578,11.689 401.267,0 415.634,0 v 0 h 35.214 c 14.367,0 26.056,11.689 26.056,26.058 v 0 15.007 c 0,14.367 -11.689,26.056 -26.056,26.056 v 0 z M 401.418,26.058 v 15.007 c 0,7.839 6.376,14.217 14.216,14.217 v 0 h 35.214 c 7.839,0 14.216,-6.378 14.216,-14.217 v 0 -15.007 c 0,-7.84 -6.378,-14.219 -14.216,-14.219 v 0 h -35.214 c -7.84,0 -14.216,6.379 -14.216,14.219" /></g></g></g></g><g
       id="g232"><g
         id="g234"><g
           id="g240"><g
             id="g242"><path
               id="path250"
               style="fill:url(#linearGradient248);stroke:none"
               d="m 220.846,67.121 c -14.368,0 -26.057,-11.689 -26.057,-26.056 v 0 -15.007 C 194.789,11.689 206.478,0 220.846,0 v 0 h 61.269 v 11.839 h -61.269 c -7.84,0 -14.218,6.379 -14.218,14.219 v 0 15.007 c 0,7.839 6.378,14.217 14.218,14.217 v 0 h 61.269 v 11.839 z" /></g></g></g></g><g
       id="g252"><g
         id="g254"><g
           id="g260"><g
             id="g262"><path
               id="path270"
               style="fill:url(#linearGradient268);stroke:none"
               d="M 0,67.122 V 55.282 11.839 6.223 0 h 61.271 c 14.365,0 26.056,11.689 26.056,26.058 v 0 15.007 c 0,14.368 -11.689,26.057 -26.056,26.057 v 0 z m 11.839,-11.84 h 49.432 c 7.838,0 14.217,-6.378 14.217,-14.217 v 0 -15.007 c 0,-7.84 -6.38,-14.219 -14.217,-14.219 v 0 H 11.839 Z" /></g></g></g></g><g
       id="g272"><g
         id="g274"><g
           id="g280"><g
             id="g282"><path
               id="path290"
               style="fill:url(#linearGradient288);stroke:none"
               d="m 292.183,67.122 v -11.84 h 37.743 V 0 h 11.84 v 55.282 h 37.743 v 11.84 z" /></g></g></g></g><g
       id="g292"><g
         id="g294"><g
           id="g300"><g
             id="g302"><path
               id="path310"
               style="fill:url(#linearGradient308);stroke:none"
               d="M 486.972,67.122 V 55.282 0 h 11.839 v 21.721 h 46.728 L 561.082,0 h 13.147 l -16.225,22.676 c 9.371,2.794 16.225,11.48 16.225,21.746 v 0 c 0,12.517 -10.182,22.7 -22.699,22.7 v 0 z m 11.839,-11.84 h 52.719 c 5.988,0 10.859,-4.872 10.859,-10.86 v 0 c 0,-5.988 -4.871,-10.86 -10.859,-10.86 v 0 h -52.719 z" /></g></g></g></g></g></svg>