<?xml version="1.0" encoding="UTF-8" standalone="no"?>
<svg
   xmlns:dc="http://purl.org/dc/elements/1.1/"
   xmlns:cc="http://creativecommons.org/ns#"
   xmlns:rdf="http://www.w3.org/1999/02/22-rdf-syntax-ns#"
   xmlns:svg="http://www.w3.org/2000/svg"
   xmlns="http://www.w3.org/2000/svg"
   viewBox="0 0 1655.6934 85.739197"

   xml:space="preserve"
   id="svg2"
   version="1.1"><metadata
     id="metadata8"><rdf:RDF><cc:Work
         rdf:about=""><dc:format>image/svg+xml</dc:format><dc:type
           rdf:resource="http://purl.org/dc/dcmitype/StillImage" /></cc:Work></rdf:RDF></metadata><defs
     id="defs6"><linearGradient
       id="linearGradient28"
       spreadMethod="pad"
       gradientTransform="matrix(1249.1459,99.931679,99.931679,-1249.1459,-22.493061,26.047666)"
       gradientUnits="userSpaceOnUse"
       y2="0"
       x2="1"
       y1="0"
       x1="0"><stop
         id="stop24"
         offset="0"
         style="stop-opacity:1;stop-color:#1baaa1" /><stop
         id="stop26"
         offset="1"
         style="stop-opacity:1;stop-color:#337abe" /></linearGradient><linearGradient
       id="linearGradient48"
       spreadMethod="pad"
       gradientTransform="matrix(1249.1459,99.931679,99.931679,-1249.1459,-21.899708,18.630751)"
       gradientUnits="userSpaceOnUse"
       y2="0"
       x2="1"
       y1="0"
       x1="0"><stop
         id="stop44"
         offset="0"
         style="stop-opacity:1;stop-color:#1baaa1" /><stop
         id="stop46"
         offset="1"
         style="stop-opacity:1;stop-color:#337abe" /></linearGradient><linearGradient
       id="linearGradient68"
       spreadMethod="pad"
       gradientTransform="matrix(1249.1459,99.931679,99.931679,-1249.1459,-21.382519,12.165885)"
       gradientUnits="userSpaceOnUse"
       y2="0"
       x2="1"
       y1="0"
       x1="0"><stop
         id="stop64"
         offset="0"
         style="stop-opacity:1;stop-color:#1baaa1" /><stop
         id="stop66"
         offset="1"
         style="stop-opacity:1;stop-color:#337abe" /></linearGradient><linearGradient
       id="linearGradient88"
       spreadMethod="pad"
       gradientTransform="matrix(1249.1459,99.931679,99.931679,-1249.1459,-21.707403,16.226931)"
       gradientUnits="userSpaceOnUse"
       y2="0"
       x2="1"
       y1="0"
       x1="0"><stop
         id="stop84"
         offset="0"
         style="stop-opacity:1;stop-color:#1baaa1" /><stop
         id="stop86"
         offset="1"
         style="stop-opacity:1;stop-color:#337abe" /></linearGradient><linearGradient
       id="linearGradient108"
       spreadMethod="pad"
       gradientTransform="matrix(1249.1459,99.931679,99.931679,-1249.1459,-19.602453,-10.08494)"
       gradientUnits="userSpaceOnUse"
       y2="0"
       x2="1"
       y1="0"
       x1="0"><stop
         id="stop104"
         offset="0"
         style="stop-opacity:1;stop-color:#1baaa1" /><stop
         id="stop106"
         offset="1"
         style="stop-opacity:1;stop-color:#337abe" /></linearGradient><linearGradient
       id="linearGradient128"
       spreadMethod="pad"
       gradientTransform="matrix(1249.1459,99.931679,99.931679,-1249.1459,-17.497503,-36.396812)"
       gradientUnits="userSpaceOnUse"
       y2="0"
       x2="1"
       y1="0"
       x1="0"><stop
         id="stop124"
         offset="0"
         style="stop-opacity:1;stop-color:#1baaa1" /><stop
         id="stop126"
         offset="1"
         style="stop-opacity:1;stop-color:#337abe" /></linearGradient><linearGradient
       id="linearGradient148"
       spreadMethod="pad"
       gradientTransform="matrix(1249.1459,99.931679,99.931679,-1249.1459,-20.904133,6.186048)"
       gradientUnits="userSpaceOnUse"
       y2="0"
       x2="1"
       y1="0"
       x1="0"><stop
         id="stop144"
         offset="0"
         style="stop-opacity:1;stop-color:#1baaa1" /><stop
         id="stop146"
         offset="1"
         style="stop-opacity:1;stop-color:#337abe" /></linearGradient><linearGradient
       id="linearGradient168"
       spreadMethod="pad"
       gradientTransform="matrix(1249.1459,99.931679,99.931679,-1249.1459,-20.19585,-2.6674709)"
       gradientUnits="userSpaceOnUse"
       y2="0"
       x2="1"
       y1="0"
       x1="0"><stop
         id="stop164"
         offset="0"
         style="stop-opacity:1;stop-color:#1baaa1" /><stop
         id="stop166"
         offset="1"
         style="stop-opacity:1;stop-color:#337abe" /></linearGradient><linearGradient
       id="linearGradient188"
       spreadMethod="pad"
       gradientTransform="matrix(1249.1459,99.931679,99.931679,-1249.1459,-19.00931,-17.499231)"
       gradientUnits="userSpaceOnUse"
       y2="0"
       x2="1"
       y1="0"
       x1="0"><stop
         id="stop184"
         offset="0"
         style="stop-opacity:1;stop-color:#1baaa1" /><stop
         id="stop186"
         offset="1"
         style="stop-opacity:1;stop-color:#337abe" /></linearGradient><linearGradient
       id="linearGradient208"
       spreadMethod="pad"
       gradientTransform="matrix(1249.1459,99.931679,99.931679,-1249.1459,-17.577457,-35.397377)"
       gradientUnits="userSpaceOnUse"
       y2="0"
       x2="1"
       y1="0"
       x1="0"><stop
         id="stop204"
         offset="0"
         style="stop-opacity:1;stop-color:#1baaa1" /><stop
         id="stop206"
         offset="1"
         style="stop-opacity:1;stop-color:#337abe" /></linearGradient><linearGradient
       id="linearGradient228"
       spreadMethod="pad"
       gradientTransform="matrix(1249.1459,99.931679,99.931679,-1249.1459,-15.797394,-57.648178)"
       gradientUnits="userSpaceOnUse"
       y2="0"
       x2="1"
       y1="0"
       x1="0"><stop
         id="stop224"
         offset="0"
         style="stop-opacity:1;stop-color:#1baaa1" /><stop
         id="stop226"
         offset="1"
         style="stop-opacity:1;stop-color:#337abe" /></linearGradient><linearGradient
       id="linearGradient248"
       spreadMethod="pad"
       gradientTransform="matrix(1249.1459,99.931679,99.931679,-1249.1459,-16.907938,-43.766369)"
       gradientUnits="userSpaceOnUse"
       y2="0"
       x2="1"
       y1="0"
       x1="0"><stop
         id="stop244"
         offset="0"
         style="stop-opacity:1;stop-color:#1baaa1" /><stop
         id="stop246"
         offset="1"
         style="stop-opacity:1;stop-color:#337abe" /></linearGradient><linearGradient
       id="linearGradient268"
       spreadMethod="pad"
       gradientTransform="matrix(1249.1459,99.931679,99.931679,-1249.1459,-18.246977,-27.028404)"
       gradientUnits="userSpaceOnUse"
       y2="0"
       x2="1"
       y1="0"
       x1="0"><stop
         id="stop264"
         offset="0"
         style="stop-opacity:1;stop-color:#1baaa1" /><stop
         id="stop266"
         offset="1"
         style="stop-opacity:1;stop-color:#337abe" /></linearGradient><linearGradient
       id="linearGradient288"
       spreadMethod="pad"
       gradientTransform="matrix(1249.1459,99.931679,99.931679,-1249.1459,-16.50572,-48.794113)"
       gradientUnits="userSpaceOnUse"
       y2="0"
       x2="1"
       y1="0"
       x1="0"><stop
         id="stop284"
         offset="0"
         style="stop-opacity:1;stop-color:#1baaa1" /><stop
         id="stop286"
         offset="1"
         style="stop-opacity:1;stop-color:#337abe" /></linearGradient><linearGradient
       id="linearGradient308"
       spreadMethod="pad"
       gradientTransform="matrix(1249.1459,99.931679,99.931679,-1249.1459,-15.204249,-65.062485)"
       gradientUnits="userSpaceOnUse"
       y2="0"
       x2="1"
       y1="0"
       x1="0"><stop
         id="stop304"
         offset="0"
         style="stop-opacity:1;stop-color:#1baaa1" /><stop
         id="stop306"
         offset="1"
         style="stop-opacity:1;stop-color:#337abe" /></linearGradient></defs><g
     transform="matrix(1.3333333,0,0,-1.3333333,0,85.7392)"
     id="g10"><g
       id="g12"><g
         id="g14"><g
           id="g20"><g
             id="g22"><path
               id="path30"
               style="fill:url(#linearGradient28);stroke:none"
               d="M 24.962,64.303 C 11.199,64.303 0,53.105 0,39.341 v 0 V 0 H 11.343 V 20.81 H 72.318 V 0 H 83.66 v 39.341 c 0,13.764 -11.198,24.962 -24.962,24.962 v 0 z M 11.343,39.341 c 0,7.509 6.11,13.619 13.619,13.619 v 0 h 33.736 c 7.51,0 13.62,-6.11 13.62,-13.619 v 0 -7.189 H 11.343 Z" /></g></g></g></g><g
       id="g32"><g
         id="g34"><g
           id="g40"><g
             id="g42"><path
               id="path50"
               style="fill:url(#linearGradient48);stroke:none"
               d="m 118.268,64.303 c -13.764,0 -24.962,-11.198 -24.962,-24.962 v 0 V 0 h 11.342 v 39.341 c 0,7.51 6.11,13.619 13.62,13.619 v 0 h 33.735 c 7.509,0 13.619,-6.109 13.619,-13.619 v 0 V 0 h 11.343 v 39.341 c 0,13.764 -11.199,24.962 -24.962,24.962 v 0 z" /></g></g></g></g><g
       id="g52"><g
         id="g54"><g
           id="g60"><g
             id="g62"><path
               id="path70"
               style="fill:url(#linearGradient68);stroke:none"
               d="m 211.573,64.303 c -13.765,0 -24.962,-11.198 -24.962,-24.962 v 0 -14.378 C 186.611,11.199 197.808,0 211.573,0 v 0 h 33.735 c 13.763,0 24.962,11.199 24.962,24.963 v 0 14.378 c 0,13.764 -11.199,24.962 -24.962,24.962 v 0 z m -13.621,-39.34 v 14.378 c 0,7.51 6.11,13.619 13.621,13.619 v 0 h 33.735 c 7.51,0 13.619,-6.109 13.619,-13.619 v 0 -14.378 c 0,-7.51 -6.11,-13.62 -13.619,-13.62 v 0 h -33.735 c -7.511,0 -13.621,6.11 -13.621,13.62" /></g></g></g></g><g
       id="g72"><g
         id="g74"><g
           id="g80"><g
             id="g82"><path
               id="path90"
               style="fill:url(#linearGradient88);stroke:none"
               d="m 466.526,52.96 h 83.66 v 11.343 h -83.66 z" /></g></g></g></g><g
       id="g92"><g
         id="g94"><g
           id="g100"><g
             id="g102"><path
               id="path110"
               style="fill:url(#linearGradient108);stroke:none"
               d="m 466.526,26.481 h 83.66 v 11.342 h -83.66 z" /></g></g></g></g><g
       id="g112"><g
         id="g114"><g
           id="g120"><g
             id="g122"><path
               id="path130"
               style="fill:url(#linearGradient128);stroke:none"
               d="m 466.526,0 h 83.66 v 11.343 h -83.66 z" /></g></g></g></g><g
       id="g132"><g
         id="g134"><g
           id="g140"><g
             id="g142"><path
               id="path150"
               style="fill:url(#linearGradient148);stroke:none"
               d="M 279.915,64.303 V 52.96 h 36.159 V 0 h 11.342 v 52.96 h 36.159 v 11.343 z" /></g></g></g></g><g
       id="g152"><g
         id="g154"><g
           id="g160"><g
             id="g162"><path
               id="path170"
               style="fill:url(#linearGradient168);stroke:none"
               d="M 445.538,64.304 V 37.823 H 384.563 V 64.304 H 373.22 V 0 h 11.343 v 26.481 h 60.975 V 0 h 11.342 v 26.481 0 11.342 0 26.481 z" /></g></g></g></g><g
       id="g172"><g
         id="g174"><g
           id="g180"><g
             id="g182"><path
               id="path190"
               style="fill:url(#linearGradient188);stroke:none"
               d="m 559.936,64.303 v -0.104 l -0.105,0.104 V 0 h 11.342 v 20.81 h 44.765 L 630.828,0 h 12.595 L 627.88,21.723 c 8.978,2.678 15.543,10.998 15.543,20.834 v 0 c 0,11.991 -9.754,21.746 -21.745,21.746 v 0 z M 571.173,52.96 h 50.505 c 5.735,0 10.403,-4.667 10.403,-10.403 v 0 c 0,-5.737 -4.668,-10.405 -10.403,-10.405 v 0 h -50.505 z" /></g></g></g></g><g
       id="g192"><g
         id="g194"><g
           id="g200"><g
             id="g202"><path
               id="path210"
               style="fill:url(#linearGradient208);stroke:none"
               d="m 809.919,64.303 c -13.765,0 -24.962,-11.198 -24.962,-24.962 v 0 -14.378 C 784.957,11.199 796.154,0 809.919,0 v 0 h 33.735 c 13.763,0 24.962,11.199 24.962,24.963 v 0 14.378 c 0,13.764 -11.199,24.962 -24.962,24.962 v 0 z m -13.62,-39.34 v 14.378 c 0,7.51 6.109,13.619 13.62,13.619 v 0 h 33.735 c 7.509,0 13.619,-6.109 13.619,-13.619 v 0 -14.378 c 0,-7.51 -6.11,-13.62 -13.619,-13.62 v 0 h -33.735 c -7.511,0 -13.62,6.11 -13.62,13.62" /></g></g></g></g><g
       id="g212"><g
         id="g214"><g
           id="g220"><g
             id="g222"><path
               id="path230"
               style="fill:url(#linearGradient228);stroke:none"
               d="m 1089.833,64.303 c -13.763,0 -24.962,-11.198 -24.962,-24.962 v 0 -14.378 C 1064.871,11.199 1076.07,0 1089.833,0 v 0 h 33.736 c 13.763,0 24.962,11.199 24.962,24.963 v 0 14.378 c 0,13.764 -11.198,24.962 -24.962,24.962 v 0 z m -13.619,-39.34 v 14.378 c 0,7.51 6.109,13.619 13.619,13.619 v 0 h 33.736 c 7.51,0 13.62,-6.109 13.62,-13.619 v 0 -14.378 c 0,-7.51 -6.111,-13.62 -13.62,-13.62 v 0 h -33.736 c -7.51,0 -13.619,6.11 -13.619,13.62" /></g></g></g></g><g
       id="g232"><g
         id="g234"><g
           id="g240"><g
             id="g242"><path
               id="path250"
               style="fill:url(#linearGradient248);stroke:none"
               d="m 903.224,64.303 c -13.765,0 -24.963,-11.198 -24.963,-24.962 v 0 -14.378 C 878.261,11.199 889.459,0 903.224,0 v 0 h 58.697 v 11.343 h -58.697 c -7.511,0 -13.62,6.11 -13.62,13.62 v 0 14.378 c 0,7.51 6.109,13.619 13.62,13.619 v 0 h 58.697 v 11.343 z" /></g></g></g></g><g
       id="g252"><g
         id="g254"><g
           id="g260"><g
             id="g262"><path
               id="path270"
               style="fill:url(#linearGradient268);stroke:none"
               d="M 691.651,64.303 V 52.96 11.343 5.962 0 h 58.698 c 13.763,0 24.962,11.199 24.962,24.963 v 0 14.378 c 0,13.764 -11.198,24.962 -24.962,24.962 v 0 z M 702.994,52.96 h 47.355 c 7.509,0 13.62,-6.11 13.62,-13.619 v 0 -14.378 c 0,-7.51 -6.111,-13.62 -13.62,-13.62 v 0 h -47.355 z" /></g></g></g></g><g
       id="g272"><g
         id="g274"><g
           id="g280"><g
             id="g282"><path
               id="path290"
               style="fill:url(#linearGradient288);stroke:none"
               d="M 971.566,64.303 V 52.96 h 36.159 V 0 h 11.342 v 52.96 h 36.159 v 11.343 z" /></g></g></g></g><g
       id="g292"><g
         id="g294"><g
           id="g300"><g
             id="g302"><path
               id="path310"
               style="fill:url(#linearGradient308);stroke:none"
               d="M 1158.176,64.303 V 52.96 0 h 11.342 v 20.81 h 44.766 L 1229.174,0 h 12.596 l -15.544,21.723 c 8.977,2.678 15.544,10.998 15.544,20.834 v 0 c 0,11.991 -9.755,21.746 -21.746,21.746 v 0 z m 11.342,-11.343 h 50.506 c 5.736,0 10.403,-4.667 10.403,-10.403 v 0 c 0,-5.737 -4.667,-10.405 -10.403,-10.405 v 0 h -50.506 z" /></g></g></g></g></g></svg>